<svg height="512" viewBox="0 0 58 58" width="512" xmlns="http://www.w3.org/2000/svg"><g id="Page-1" fill="none" fill-rule="evenodd"><g id="037---Evil" fill-rule="nonzero"><path id="Shape" d="m3.67 14.89c-2.04411728 3.6484878-3.26597059 7.6997165-3.58 11.87-.02398774.3809301.17095821.7422929.50248397.9314326s.74180445.1730653 1.05751603-.0414326c.18-.12.37-.25.57-.37.39712336-.2477922.91299882-.1869518 1.24158108.1464273.32858227.3333791.38194018.850082.12841892 1.2435727-1.54287072 2.5482163-2.22970558 5.5233326-1.96 8.49.03138308.4012774.30029024.7446271.68235566.8712545s.80280966.0118479 1.06764434-.2912545c.24059965-.2632678.50139256-.5073432.78-.73.30879058-.2320913.72364114-.2655771 1.06565922-.0860176s.55003164.540049.53434078.9260176c-.22605319 4.409587 1.28538978 8.7320985 4.21 12.04.2069277.2428286.5173023.3723469.8354572.3486335.3181548-.0237134.6058995-.197812.7745428-.4686335.2601336-.4557748.594762-.8647652.99-1.21.2664556-.2204915.6273482-.2889818.9560578-.181441.3287097.1075409.5793345.3760955.6639422.711441.58 2.44 3 8.15 12.79 8.84-.93-2.96 2.02-4.93 2.02-4.93s2.95 1.97 2.02 4.93c9.79-.69 12.21-6.4 12.79-8.84.0846077-.3353455.3352325-.6039001.6639422-.711441.3287096-.1075408.6896022-.0390505.9560578.181441.395238.3452348.7298664.7542252.99 1.21.1686433.2708215.456388.4449201.7745428.4686335.3181549.0237134.6285295-.1058049.8354572-.3486335 2.9246102-3.3079015 4.4360532-7.630413 4.21-12.04-.0156909-.3859686.1923227-.7464581.5343408-.9260176s.7568686-.1460737 1.0656592.0860176c.2786074.2226568.5394004.4667322.78.73.2648347.3031024.6855789.4178819 1.0676443.2912545.3820655-.1266274.6509726-.4699771.6823557-.8712545.2697056-2.9666674-.4171293-5.9417837-1.96-8.49-.2535213-.3934907-.2001633-.9101936.1284189-1.2435727.3285823-.3333791.8444577-.3942195 1.2415811-.1464273.2.12.39.25.57.37.3157116.2144979.7259903.2305723 1.057516.0414326.3315258-.1891397.5264717-.5505025.502484-.9314326-.3161008-4.1820568-1.5449294-8.2440181-3.6-11.9l-6.21-7.67c-10.9366183-9.59408839-27.2934286-9.5855291-38.22.02z" fill="#cb8252"/><path id="Shape" d="m13.7 13.41c-.0584625.1437613-.1252421.2839984-.2.42-.6827077 1.324437-1.7633569 2.401589-3.09 3.08-1.21655533.5485057-2.50693557.9157419-3.83 1.09-6.13-4.33-4.72-12.38-3.57-16.31.07996682-.28488079.28645933-.51718486.56-.63.44186534-.17478967.94318284.02749634 1.14.46 1.32 2.6 4.21 6.7 9.25 6.7.4470549 1.71578548.3562955 3.5274845-.26 5.19z" fill="#f9eab0"/><path id="Shape" d="m51.423 18c6.127-4.329 4.721-12.384 3.562-16.312-.0890456-.37232746-.4038809-.64757698-.7847658-.68609343-.380885-.03851646-.7444514.16813065-.9062342.51509343-1.327 2.6-4.216 6.7-9.253 6.7-.449244 1.7164988-.3588099 3.5297203.259 5.193.6543996 1.5153286 1.8187807 2.7536555 3.291 3.5 1.2185244.545021 2.5090475.9121061 3.832 1.09z" fill="#f9eab0"/><path id="Shape" d="m39.96 19.28c3.0439112.8821366 5.117186 3.6970431 5.0567675 6.8656247-.0604186 3.1685817-2.2394968 5.9024042-5.3148242 6.6678591-3.0753275.7654548-6.2816742-.6279252-7.820357-3.3984875-1.5386829-2.7705622-1.0268332-6.2289111 1.2484137-8.4349963z" fill="#ecf0f1"/><circle id="Oval" cx="38" cy="26" fill="#65ddb9" r="5"/><circle id="Oval" cx="38" cy="26" fill="#35495e" r="2"/><path id="Shape" d="m24.87 20.98c2.267058 2.2032636 2.7745929 5.6532233 1.2381111 8.4160382-1.5364819 2.7628148-4.735043 4.1517065-7.8027615 3.3881456-3.0677185-.763561-5.2420235-3.4897693-5.3041295-6.6504758-.0621061-3.1607064 2.0034249-5.9702251 5.0387799-6.853708z" fill="#ecf0f1"/><circle id="Oval" cx="20" cy="26" fill="#65ddb9" r="5"/><circle id="Oval" cx="20" cy="26" fill="#35495e" r="2"/><path id="Shape" d="m29 50c-3.25 0-4.491-1.077-4.707-1.293-.391409-.3853413-.3987577-1.0142475-.0164598-1.4086295.382298-.3943821 1.0111283-.4066021 1.4084598-.0273705.056.046.941.729 3.315.729 2.444 0 3.31-.724 3.318-.731.4086145-.3562248 1.0250325-.328486 1.4.063.3700322.3855532.364705.9959638-.012 1.375-.215.216-1.456 1.293-4.706 1.293z" fill="#a56a43"/><path id="Shape" d="m38.872 37c.2986406-.0008457.5820298.1318275.7726441.3617257.1906142.2298981.2685018.5329578.2123559.8262743-.534602 3.1144114-3.1164993 5.4676581-6.267 5.712-.5274644.0657308-1.0584565.0991265-1.59.1h-6c-.5315435-.0008735-1.0625356-.0342692-1.59-.1-3.1505007-.2443419-5.732398-2.5975886-6.267-5.712-.0561459-.2933165.0217417-.5963762.2123559-.8262743.1906143-.2298982.4740035-.3625714.7726441-.3617257z" fill="#802d40"/><g fill="#a56a43"><path id="Shape" d="m38 12c-.1975323.0000443-.3906531-.0584139-.555-.168-1.8800101-1.0707379-4.0992045-1.3792775-6.2-.862-.3498693.0959435-.72426-.0051249-.9783171-.2641012-.2540571-.2589762-.3479281-.635236-.2452935-.98320126.1026346-.34796528.385675-.61305264.7396106-.69269754 1.9849717-.49509439 4.0718011-.39457877 6 .289-.3008183-1.06079326-1.0616834-1.93066792-2.073-2.37-.5246705-.17452198-.808522-.74132949-.634-1.266s.7413295-.80852198 1.266-.634c.147.051 3.68 1.284 3.68 5.951 0 .5522847-.4477153 1-1 1z"/><path id="Shape" d="m20 12c-.5522847 0-1-.4477153-1-1 0-4.667 3.533-5.9 3.684-5.949.5232898-.17673112 1.0907689.1042102 1.2675.6275s-.1042102 1.09076888-.6275 1.2675c-1.0121815.44089327-1.7745959 1.31075716-2.079 2.372 1.9284364-.68254445 4.0150558-.78270218 6-.288.3539356.0796449.636976.34473226.7396106.69269754.1026346.34796526.0087636.72422506-.2452935.98320126-.2540571.2589763-.6284478.3600447-.9783171.2641012-2.1032949-.5176075-4.3250232-.2083481-6.207.864-.1642861.1086908-.3570142.1664396-.554.166z"/><path id="Shape" d="m32 22c-.5522847 0-1-.4477153-1-1s.4477153-1 1-1c7.945 0 9.026-3.234 9.036-3.267.159256-.520756.7014054-.822735 1.228-.684.5214251.1390586.8354247.6701005.706 1.194-.048.194-1.3 4.757-10.97 4.757z"/><path id="Shape" d="m26 22c-9.67 0-10.922-4.563-10.97-4.757-.0905668-.3456545.0101504-.7133692.2642126-.9646296.2540621-.2512604.622871-.347894.9675-.2535.3446289.0943941.6127206.3654751.7032874.7111296.035.105 1.182 3.264 9.035 3.264.5522847 0 1 .4477153 1 1s-.4477153 1-1 1z"/></g><circle id="Oval" cx="17" cy="24" fill="#ecf0f1" r="2"/><circle id="Oval" cx="35" cy="24" fill="#ecf0f1" r="2"/><path id="Shape" d="m34 42.5c-.0048968.4955541-.1467974.9800927-.41 1.4-.5274644.0657308-1.0584565.0991265-1.59.1h-6c-.5315435-.0008735-1.0625356-.0342692-1.59-.1-.2632026-.4199073-.4051032-.9044459-.41-1.4 0-1.93 2.24-3.5 5-3.5s5 1.57 5 3.5z" fill="#ff5364"/><path id="Shape" d="m36.87 42.75c-1.467225.8814126-3.1596474 1.3158126-4.87 1.25h-.63l1.02-2.71c.2802294-.7436861.9741935-1.2508912 1.7678559-1.2920922.7936623-.0412011 1.5364152.3914204 1.8921441 1.1020922z" fill="#ecf0f1"/><path id="Shape" d="m26.63 44h-.63c-1.7103526.0658126-3.402775-.3685874-4.87-1.25l.82-1.65c.3557289-.7106718 1.0984818-1.1432933 1.8921441-1.1020922.7936624.041201 1.4876265.5484061 1.7678559 1.2920922z" fill="#ecf0f1"/><path id="Shape" d="m13.7 13.41c-.0584625.1437613-.1252421.2839984-.2.42-8.23-1.12-9.86-7.91-9.93-12.77.44186534-.17478967.94318284.02749634 1.14.46 1.32 2.6 4.21 6.7 9.25 6.7.4470549 1.71578548.3562955 3.5274845-.26 5.19z" fill="#f5efca"/><path id="Shape" d="m44.3 13.41c.0584625.1437613.1252421.2839984.2.42 8.23-1.12 9.86-7.91 9.93-12.77-.4418653-.17478967-.9431828.02749634-1.14.46-1.32 2.6-4.21 6.7-9.25 6.7-.4470549 1.71578548-.3562955 3.5274845.26 5.19z" fill="#f5efca"/></g></g></svg>