<svg height="512" viewBox="0 0 60 60" width="512" xmlns="http://www.w3.org/2000/svg"><g id="Page-1" fill="none" fill-rule="evenodd"><g id="006---Silly" transform="translate(0 -1)"><path id="Shape" d="m59 35c-.0150139 4.6258566-1.4650145 9.1330877-4.15 12.9-2.2919836-1.5712058-5.3629417-1.3630241-7.4219048.5031344-2.0589631 1.8661584-2.5671115 4.9019299-1.2280952 7.3368656-4.9301676 2.8229659-10.5189238 4.2926018-16.2 4.26-5.6810762.0326018-11.2698324-1.4370341-16.2-4.26 1.3390163-2.4349357.8308679-5.4707072-1.2280952-7.3368656-2.0589631-1.8661585-5.12992122-2.0743402-7.4219048-.5031344-2.68498545-3.7669123-4.13498614-8.2741434-4.15-12.9 0-6.9 3.24-15.16 8.49-21.68.85-1 1.74-2 2.67-3 4.92-4.93 11.11-8.32 17.84-8.32s12.92 3.39 17.84 8.34c.93.93 1.82 1.93 2.67 3 5.24 6.5 8.49 14.75 8.49 21.66z" fill="#a4c400" fill-rule="nonzero"/><path id="Shape" d="m50.51 13.31c-.85-1-1.74-2-2.67-3-4.92-4.92-11.11-8.31-17.84-8.31-.5 0-1 0-1.5.06 6.15.46 11.79 3.7 16.34 8.28.93.93 1.82 1.93 2.67 3 5.24 6.5 8.49 14.75 8.49 21.66-.0038512 4.2554189-1.2290257 8.4203181-3.53 12 .853794.1368794 1.6666268.4613295 2.38.95 2.6948554-3.7808251 4.1453487-8.3070631 4.15-12.95 0-6.91-3.25-15.16-8.49-21.69z" fill="#90ac00" fill-rule="nonzero"/><path id="Shape" d="m13.8 55.74c-3.4139761-1.9603347-6.36451615-4.6345814-8.65-7.84 2.29198358-1.5712058 5.3629417-1.3630241 7.4219048.5031344 2.0589631 1.8661584 2.5671115 4.9019299 1.2280952 7.3368656z" fill="#ef314c" fill-rule="nonzero"/><path id="Shape" d="m54.85 47.9c-2.2854839 3.2054186-5.2360239 5.8796653-8.65 7.84-1.3390163-2.4349357-.8308679-5.4707072 1.2280952-7.3368656 2.0589631-1.8661585 5.1299212-2.0743402 7.4219048-.5031344z" fill="#ef314c" fill-rule="nonzero"/><path id="Shape" d="m50 47.05c.6717276.1707111 1.3081229.458443 1.88.85-1.7110085 2.4211975-3.8170498 4.5373803-6.23 6.26.1198898.5507936.3150563 1.0824541.58 1.58 3.4139761-1.9603347 6.3645161-4.6345814 8.65-7.84-1.4242451-.9829703-3.2072847-1.2935407-4.88-.85z" fill="#bb193b" fill-rule="nonzero"/><path id="Shape" d="m9.49 13.32v-.01" stroke="#000" stroke-linecap="round" stroke-linejoin="round" stroke-width="2"/><g fill-rule="nonzero"><path id="Shape" d="m12.16 10.34c-.93.93-1.82 1.93-2.67 3l-2.25-2.28c-.68558133-.6442894-1.58001493-1.0205194-2.52-1.06-.7916684-.06166211-1.54707066-.357557-2.17-.85-.79179796-.60470357-1.32437429-1.48756499-1.49-2.47-.22401223-1.28844247.19595979-2.60502538 1.12467096-3.52576479.92871118-.9207394 2.24886555-1.32934617 3.53532904-1.09423521.97647128.17939729 1.8484974.72262668 2.44 1.52.4846761.61119402.77702296 1.35250213.84 2.13.04072647.94458619.42061621 1.84283015 1.07 2.53z" fill="#60a917"/><path id="Shape" d="m58.94 6.68c-.1680017.97880875-.7003494 1.85771839-1.49 2.46-.6217436.49603572-1.3772514.79545357-2.17.86-.9412974.0422112-1.8358966.4220609-2.52 1.07l-2.25 2.25c-.85-1-1.74-2-2.67-3l2.1-2.1c.6413361-.68349758 1.0172786-1.57370102 1.06-2.51.0600887-.77642321.3489147-1.51762711.83-2.13.5915026-.79737332 1.4635287-1.34060271 2.44-1.52 1.2880022-.2388894 2.6113546.16802747 3.5426142 1.08931642.9312596.92128894 1.3523974 2.24018462 1.1273858 3.53068358z" fill="#60a917"/><path id="Shape" d="m54.28 2.06c-.2684257.04948786-.5301845.13002902-.78.24 1.7409644.70587293 2.7561247 2.52816877 2.44 4.38-.1680017.97880875-.7003494 1.85771839-1.49 2.46-.6217436.49603572-1.3772514.79545357-2.17.86-.9412974.0422112-1.8358966.4220609-2.52 1.07l-.64.64c.48.52.94 1.06 1.39 1.61l2.25-2.25c.6841034-.6479391 1.5787026-1.0277888 2.52-1.07.7916684-.06166211 1.5470707-.357557 2.17-.85.7896506-.60228161 1.3219983-1.48119125 1.49-2.46.2277688-1.28999603-.1905309-2.60977157-1.1197916-3.53304992-.9292607-.92327834-2.2517103-1.33304552-3.5402084-1.09695008z" fill="#549414"/><circle id="Oval" cx="17" cy="23" fill="#f5f5f5" r="6"/><path id="Shape" d="m17 17c-.5066588-.0001775-1.0110876.0670797-1.5.2 2.6313194.6969499 4.4637709 3.0779454 4.4637709 5.8s-1.8324515 5.1030501-4.4637709 5.8c.4889124.1329203.9933412.2001775 1.5.2 3.3137085 0 6-2.6862915 6-6s-2.6862915-6-6-6z" fill="#cfd8dc"/><circle id="Oval" cx="17" cy="22" fill="#37474f" r="2"/><circle id="Oval" cx="43" cy="23" fill="#f5f5f5" r="6"/><path id="Shape" d="m43 17c-.5066588-.0001775-1.0110876.0670797-1.5.2 2.6313194.6969499 4.4637709 3.0779454 4.4637709 5.8s-1.8324515 5.1030501-4.4637709 5.8c.4889124.1329203.9933412.2001775 1.5.2 3.3137085 0 6-2.6862915 6-6s-2.6862915-6-6-6z" fill="#cfd8dc"/><circle id="Oval" cx="43" cy="22" fill="#37474f" r="2"/><circle id="Oval" cx="30" cy="12.33" fill="#f5f5f5" r="6"/><path id="Shape" d="m30 6.33c-.5059051.00149718-1.0096992.0653111-1.5.19 2.6406605.69017726 4.4827739 3.07563514 4.4827739 5.805 0 2.7293649-1.8421134 5.1148227-4.4827739 5.805.4898995.1279622.9936877.195134 1.5.2 3.3137085 0 6-2.6862915 6-6s-2.6862915-6-6-6z" fill="#cfd8dc"/><circle id="Oval" cx="30" cy="11.33" fill="#37474f" r="2"/><path id="Shape" d="m38.54 48.67c-2.0241548.8791215-4.3778749-.0471524-5.26-2.07l-4-9.25h.75s3.23 0 8.18.49l2.43 5.59c.8621541 2.0269394-.0766451 4.3694669-2.1 5.24z" fill="#ef314c"/><path id="Shape" d="m40.61 43.41-2.43-5.59c-5-.49-8.18-.49-8.18-.49h-.75c1.42.06 3.45.19 5.91.43l2.43 5.59c.8791215 2.0241548-.0471524 4.3778749-2.07 5.26h-.11c1.5042351.6119832 3.2291841.2537669 4.3653702-.9065468 1.1361861-1.1603136 1.458082-2.892408.8146298-4.3834532z" fill="#bb193b"/><circle id="Oval" cx="24" cy="52" fill="#ef314c" r="3"/><circle id="Oval" cx="18" cy="44" fill="#ef314c" r="2"/><path id="Shape" d="m24 48c-2.209139 0-4 1.790861-4 4s1.790861 4 4 4 4-1.790861 4-4-1.790861-4-4-4zm0 6c-1.1045695 0-2-.8954305-2-2s.8954305-2 2-2 2 .8954305 2 2-.8954305 2-2 2z" fill="#000"/><path id="Shape" d="m21 44c0-1.6568542-1.3431458-3-3-3s-3 1.3431458-3 3 1.3431458 3 3 3 3-1.3431458 3-3zm-3 1c-.5522847 0-1-.4477153-1-1s.4477153-1 1-1 1 .4477153 1 1-.4477153 1-1 1z" fill="#000"/><path id="Shape" d="m53.47 11.76c.5167056-.468271 1.1830334-.7376376 1.88-.76.987771-.0797812 1.9302383-.4484215 2.71-1.06 1.5544654-1.18743586 2.2737271-3.17230227 1.8408208-5.07990773-.4329064-1.90760546-1.9384682-3.38757699-3.8532141-3.78772032-1.9147458-.40014332-3.8869913.35303653-5.0476067 1.92762805-.5835902.77128518-.9309554 1.69527663-1 2.66-.0279075.70062603-.3003481 1.36934392-.77 1.89l-1.45 1.45c-5.07-4.81-11.28-8-17.78-8-7.75 0-13.88 4.16-17.83 7.93l-1.41-1.4c-.4660197-.52207393-.7348613-1.1906406-.76-1.89-.07282784-.95778649-.42000106-1.87432378-1-2.64-1.17385238-1.56513651-3.15271129-2.30185661-5.06429637-1.88541434-1.91158508.41644228-3.40467569 1.90953289-3.82111797 3.82111797-.41644227 1.91158508.32027783 3.89044399 1.88541434 5.06429637.76985509.5792987 1.68935986.9262817 2.65 1 .69825472.0251165 1.36473979.2980917 1.88.77l1.64 1.63c-5.05 6.6-8.17 14.76-8.17 21.6.0215911 4.7978874 1.51939896 9.4728634 4.29 13.39v.08l.06.06c2.35115418 3.266091 5.37162632 5.9933796 8.86 8l.07.06h.11c5.0529257 2.9041002 10.7819965 4.4251841 16.61 4.41 5.8081043.0294679 11.5220735-1.4671299 16.57-4.34h.11l.07-.06c3.4883737-2.0066204 6.5088458-4.733909 8.86-8l.06-.06s0-.06 0-.08c2.7985308-3.9319394 4.3111121-8.6338665 4.33-13.46 0-7.1-3.18-15.11-8.2-21.56zm-2.82-2.76c.8201087-.87366413 1.299185-2.01280114 1.35-3.21.0445654-.58579724.2601483-1.14561735.62-1.61.5236682-.68036108 1.3137398-1.10375573 2.1702484-1.16302307.8565086-.05926733 1.6973659.25127286 2.3097516.85302307.839812.82689169 1.1176557 2.06891094.7102168 3.1748167-.407439 1.10590576-1.4246692 1.87079253-2.6002168 1.9551833-1.1814818.05069606-2.3028828.53485651-3.15 1.36l-1.54 1.53c-.43-.5-.88-1-1.33-1.47zm-45.86 0c-1.17295989-.08424476-2.1885331-.84604507-2.59766955-1.94856013-.40913644-1.10251506-.13637869-2.34240693.69766955-3.17143987.61238569-.60175021 1.45324302-.9122904 2.3097516-.85302307.85650857.05926734 1.64658023.48266199 2.1702484 1.16302307.36162579.4604335.58062356 1.01661832.63 1.6.05705918 1.17806324.53627088 2.29622388 1.35 3.15l1.42 1.42c-.45.47-.89 1-1.34 1.48l-1.49-1.49c-.84863896-.82148389-1.9698641-1.30200895-3.15-1.35zm1.86 39.23c1.76852479-.707852 3.7856181-.3492935 5.2018534.9246813 1.4162354 1.2739748 1.9855303 3.2420024 1.4681466 5.0753187-2.5503258-1.6035412-4.80642758-3.633018-6.67-6zm40 6c-.5173837-1.8333163.0519112-3.8013439 1.4681466-5.0753187 1.4162353-1.2739748 3.4333286-1.6325333 5.2018534-.9246813-1.8511607 2.3786819-4.097149 4.4217194-6.64 6.04zm7.85-7.71c-2.5727993-1.2447084-5.6439166-.8002912-7.7583229 1.1226964s-2.8473892 4.9382827-1.8516771 7.6173036c-9.3348755 4.9336734-20.5051245 4.9336734-29.84 0 .9957121-2.6790209.2627292-5.694316-1.8516771-7.6173036s-5.1855236-2.3674048-7.7583229-1.1226964c-2.23273131-3.4283186-3.42730565-7.4287537-3.44-11.52 0-6.65 3.17-14.72 8.27-21l.06-.08c.84-1 1.7-2 2.54-2.83 3.65-3.71 9.58-8.09 17.13-8.09 6.54 0 12.41 3.25 17.07 8 .023397.0275909.0435303.0577909.06.09h.08c6.65 6.79 10.79 16.52 10.79 23.91-.0139 4.1078962-1.2192864 8.1235349-3.47 11.56z" fill="#000"/><path id="Shape" d="m17 30c3.8659932 0 7-3.1340068 7-7s-3.1340068-7-7-7-7 3.1340068-7 7 3.1340068 7 7 7zm0-12c2.7614237 0 5 2.2385763 5 5s-2.2385763 5-5 5-5-2.2385763-5-5 2.2385763-5 5-5z" fill="#000"/><path id="Shape" d="m17 25c1.6568542 0 3-1.3431458 3-3s-1.3431458-3-3-3-3 1.3431458-3 3 1.3431458 3 3 3zm0-4c.5522847 0 1 .4477153 1 1s-.4477153 1-1 1-1-.4477153-1-1 .4477153-1 1-1z" fill="#000"/><path id="Shape" d="m43 16c-3.8659932 0-7 3.1340068-7 7s3.1340068 7 7 7 7-3.1340068 7-7-3.1340068-7-7-7zm0 12c-2.7614237 0-5-2.2385763-5-5s2.2385763-5 5-5 5 2.2385763 5 5c0 1.3260824-.5267842 2.597852-1.4644661 3.5355339s-2.2094515 1.4644661-3.5355339 1.4644661z" fill="#000"/><path id="Shape" d="m43 19c-1.6568542 0-3 1.3431458-3 3s1.3431458 3 3 3 3-1.3431458 3-3-1.3431458-3-3-3zm0 4c-.5522847 0-1-.4477153-1-1s.4477153-1 1-1 1 .4477153 1 1-.4477153 1-1 1z" fill="#000"/><path id="Shape" d="m30 19.33c3.8659932 0 7-3.1340068 7-7 0-3.86599325-3.1340068-7-7-7s-7 3.13400675-7 7c0 1.8565154.7374979 3.6369928 2.0502525 4.9497475 1.3127547 1.3127546 3.0932321 2.0502525 4.9497475 2.0502525zm0-12c2.7614237 0 5 2.23857625 5 5 0 2.7614237-2.2385763 5-5 5s-5-2.2385763-5-5c0-2.76142375 2.2385763-5 5-5z" fill="#000"/><path id="Shape" d="m30 14.33c1.6568542 0 3-1.3431458 3-3 0-1.65685425-1.3431458-3-3-3s-3 1.34314575-3 3c0 1.6568542 1.3431458 3 3 3zm0-4c.5522847 0 1 .4477153 1 1s-.4477153 1-1 1-1-.4477153-1-1 .4477153-1 1-1z" fill="#000"/><path id="Shape" d="m42.73 37.34c-4.2185674-.596295-8.4700685-.93027-12.73-1-4.2599315.06973-8.5114326.403705-12.73 1-1.653724.3240456-3.3679737-.0446981-4.7421869-1.0200681s-2.2879905-2.471911-2.5278131-4.1399319c-.03945684-.2627206-.18183361-.4989425-.39571038-.6565359s-.4816725-.2236039-.74428962-.1834641c-.26637216.0346339-.50761095.1749753-.66938083.3894145-.16176987.2144391-.23046729.4849433-.19061917.7505855.29509727 2.2006574 1.48495004 4.1821092 3.2887809 5.476779 1.8038308 1.2946697 4.0618505 1.7878714 6.2412191 1.363221 3.6673682-.5202861 7.358786-.854049 11.06-1l3.77 8.68c1.1045696 2.5322255 4.0527744 3.6895693 6.5849999 2.5849999 2.5322256-1.1045695 3.6895695-4.0527743 2.5850001-6.5849999l-1.75-4c.86.1 1.75.21 2.68.34.5039676.0662033 1.0117028.0996069 1.52.1 4.0353906.0355605 7.4654467-2.9400132 8-6.94.0401398-.2626171-.0258707-.5304129-.1834641-.7442896-.1575934-.2138768-.3938153-.3562536-.6565359-.3957104-.5435979-.08394-1.0529357.2868937-1.14.83-.2422774 1.666193-1.1570832 3.1601945-2.530999 4.1334636s-3.0867831 1.3406866-4.739001 1.0165364zm-3 6.46c.4973728.991821.4067068 2.1771751-.2357235 3.0818141-.6424303.9046391-1.7317099 1.3808269-2.8320289 1.2380455-1.1003191-.1427815-2.031985-.8812145-2.4222476-1.9198596l-3.43-7.86c1.16 0 3.55.12 6.73.41z" fill="#000"/><circle id="Oval" cx="28" cy="30" fill="#000" r="1"/><circle id="Oval" cx="32" cy="30" fill="#000" r="1"/></g></g></g></svg>