<?xml version="1.0" encoding="iso-8859-1"?>
<!-- Generator: Adobe Illustrator 19.0.0, SVG Export Plug-In . SVG Version: 6.00 Build 0)  -->
<svg version="1.1" id="Capa_1" xmlns="http://www.w3.org/2000/svg" xmlns:xlink="http://www.w3.org/1999/xlink" x="0px" y="0px"
	 viewBox="0 0 512.005 512.005" style="enable-background:new 0 0 512.005 512.005;" xml:space="preserve">
<path style="fill:#FDDC42;" d="M443.736,315.732c0,103.68-84.053,187.733-187.733,187.733S68.269,419.412,68.269,315.732
	c1.451-40.013,9.079-79.565,22.613-117.248c3.157-9.301,6.656-18.688,10.411-27.989c1.707-4.352,3.499-8.619,5.376-12.885
	c3.328-7.68,6.912-15.36,10.667-22.869c7.023-14.234,14.857-28.058,23.467-41.387c2.133-3.328,4.267-6.485,6.485-9.643
	c1.109-1.621,2.219-3.157,3.328-4.693h0.171c5.99-8.439,12.484-16.503,19.456-24.149c5.658-6.178,11.665-12.015,18.005-17.493
	c18.441-17.468,42.556-27.708,67.925-28.843c7.987-0.009,15.932,1.203,23.552,3.584c24.354,8.414,45.978,23.279,62.549,43.008
	c7.168,7.868,13.867,16.162,20.053,24.832c0.085,0.085,0.085,0.085,0.085,0.171c0.085,0.256,0.256,0.512,0.341,0.768
	c0.853,1.195,1.621,2.304,2.475,3.499c10.965,15.957,20.745,32.7,29.269,50.091c5.888,11.776,11.29,23.782,16.213,36.011
	c3.755,9.301,7.253,18.603,10.411,27.989C434.657,236.167,442.285,275.71,443.736,315.732z"/>
<path style="fill:#FFEB49;" d="M409.944,298.665c-0.06,103.74-84.207,187.793-187.955,187.733
	c-22.878-0.017-45.568-4.207-66.935-12.373c-54.093-34.458-86.827-94.165-86.784-158.293c1.451-40.013,9.079-79.565,22.613-117.248
	c3.157-9.301,6.656-18.688,10.411-27.989c1.707-4.352,3.499-8.619,5.376-12.885c3.328-7.68,6.912-15.36,10.667-22.869
	c7.023-14.234,14.857-28.058,23.467-41.387c2.133-3.328,4.267-6.485,6.485-9.643c1.109-1.621,2.219-3.157,3.328-4.693h0.171
	c5.99-8.439,12.484-16.503,19.456-24.149c5.658-6.178,11.665-12.015,18.005-17.493c18.441-17.468,42.556-27.708,67.925-28.843
	c7.987-0.009,15.932,1.203,23.552,3.584c10.496,7.586,20.13,16.282,28.757,25.941c7.168,7.868,13.867,16.162,20.053,24.832
	c0.085,0.085,0.085,0.085,0.085,0.171c0.085,0.256,0.256,0.512,0.341,0.768c0.853,1.195,1.621,2.304,2.475,3.499
	c10.965,15.957,20.745,32.7,29.269,50.091c5.888,11.776,11.29,23.782,16.213,36.011c3.755,9.301,7.253,18.603,10.411,27.989
	C400.865,219.1,408.493,258.644,409.944,298.665z"/>
<path style="fill:#37474F;" d="M230.403,209.918L140.205,99.582L82.264,34.473l-4.693-5.291
	C33.923,60.961,8.237,111.802,8.536,165.801c-0.23,47.147,19.337,92.22,53.931,124.245c3.908,3.43,6.05,8.457,5.803,13.653
	c-0.256,3.925-0.341,7.765-0.341,11.435c-0.06,51.977,21.487,101.649,59.477,137.131l0.597-0.597
	c-6.281-17.297-9.173-35.627-8.533-54.016c0.529-16.213,6.545-31.77,17.067-44.117c8.781-9.856,20.361-16.794,33.195-19.883
	c3.891-0.998,7.859-1.655,11.861-1.963c13.747-1.033,27.29-3.908,40.277-8.533l0.768-6.144l12.117-95.744
	C234.755,217.078,233.202,213.033,230.403,209.918z"/>
<g>
	<path style="fill:#607D8B;" d="M234.755,221.268l-12.117,95.744l-0.768,6.144c-12.988,4.625-26.53,7.501-40.277,8.533
		c-4.002,0.307-7.97,0.964-11.861,1.963c-12.834,3.089-24.414,10.027-33.195,19.883c-10.522,12.348-16.538,27.904-17.067,44.117
		c-17.024-28.843-25.984-61.739-25.941-95.232c0-3.669,0.085-7.509,0.341-11.435c0.247-5.197-1.894-10.223-5.803-13.653
		c-34.594-32.026-54.161-77.107-53.931-124.245C33.923,108.747,51.22,66.123,82.264,34.473l57.941,65.109l90.197,110.336
		C233.202,213.033,234.755,217.078,234.755,221.268z"/>
	<path style="fill:#607D8B;" d="M434.435,29.78l-4.693,5.291L371.8,100.18l-90.197,110.336c-2.799,3.115-4.352,7.159-4.352,11.349
		l12.117,95.744l0.768,6.144c12.988,4.625,26.53,7.501,40.277,8.533c4.002,0.307,7.97,0.964,11.861,1.963
		c12.834,3.089,24.414,10.027,33.195,19.883c10.291,12.075,16.273,27.238,16.981,43.093c0.845,18.722-2.031,37.427-8.448,55.04
		l0.256,0.256c37.811-35.439,59.221-84.966,59.136-136.789c0-3.499-0.085-7.168-0.256-10.923c-0.205-5.188,1.92-10.197,5.803-13.653
		c34.97-32.026,54.775-77.338,54.528-124.757C503.768,112.4,478.083,61.558,434.435,29.78z"/>
</g>
<path style="fill:#37474F;" d="M503.469,166.398c0.247,47.42-19.558,92.732-54.528,124.757c-3.883,3.456-6.007,8.465-5.803,13.653
	c0.171,3.755,0.256,7.424,0.256,10.923c0.085,51.823-21.325,101.35-59.136,136.789l-0.256-0.256
	c6.417-17.613,9.293-36.318,8.448-55.04c16.649-28.604,25.395-61.116,25.344-94.208c0-3.499-0.085-7.168-0.256-10.923
	c-0.205-5.188,1.92-10.197,5.803-13.653c34.97-32.026,54.775-77.338,54.528-124.757c0.213-44.331-17.084-86.963-48.128-118.613
	l4.693-5.291C478.083,61.558,503.768,112.4,503.469,166.398z"/>
<path style="fill:#CFD8DC;" d="M230.403,255.998l-8.619,17.067l-85.845,19.627l-16.384,3.755c-4.591,1.101-9.207-1.732-10.308-6.323
	c-0.085-0.367-0.154-0.734-0.188-1.101l-6.656-65.621c-0.452-4.719,3.004-8.917,7.723-9.37c0.469-0.043,0.939-0.051,1.408-0.017
	l16.896,5.973L230.403,255.998z"/>
<path style="fill:#FFFFFF;" d="M230.403,255.998l-8.619,17.067l-85.845,19.627c-0.7-1.109-1.143-2.364-1.28-3.669l-6.656-65.621
	c-0.119-1.152,0.026-2.321,0.427-3.413L230.403,255.998z"/>
<path style="fill:#CFD8DC;" d="M409.603,222.718l-6.571,65.621c-0.452,4.659-4.591,8.073-9.25,7.62
	c-0.393-0.034-0.777-0.102-1.161-0.196l-16.469-3.755l-84.992-19.627l-8.533-17.067l100.949-35.925l16.981-6.059
	c4.693-0.316,8.755,3.234,9.071,7.927C409.662,221.746,409.654,222.232,409.603,222.718z"/>
<path style="fill:#FFFFFF;" d="M384.003,222.718l-6.571,65.621c-0.137,1.306-0.58,2.56-1.28,3.669l-84.992-19.627l-8.533-17.067
	l100.949-35.925C383.977,220.449,384.131,221.584,384.003,222.718z"/>
<path style="fill:#475962;" d="M332.803,435.198c0,23.569-34.389,42.667-76.8,42.667c-4.011,0-7.876-0.196-11.691-0.529
	c-36.855-3.089-65.109-20.804-65.109-42.138s47.411-39.057,87.885-42.138c0,0,0-0.068,0.068,0c4.139-0.333,8.286-0.529,12.22-0.529
	C321.786,392.532,332.803,411.629,332.803,435.198z"/>
<path style="fill:#728F9C;" d="M298.669,435.198c0,21.333-25.916,39.057-59.733,42.138c-33.818-3.089-59.733-20.804-59.733-42.138
	s43.494-39.057,80.623-42.138c0,0,0-0.068,0.06,0C290.341,396.141,298.669,413.865,298.669,435.198z"/>
<path d="M366.484,102.407c-2.731-4.471-5.632-8.858-8.61-13.167l-2.415-3.405c-0.341-0.495-0.64-1.015-0.879-1.562
	c-5.854-8.149-12.228-16.017-18.961-23.407c-26.522-29.065-53.367-43.802-79.787-43.802c-22.938,1.041-45.116,10.453-62.054,26.505
	c-6.366,5.513-12.186,11.17-17.587,17.067c-6.682,7.33-13.005,15.181-18.79,23.322c-0.316,0.435-0.666,0.845-1.041,1.212
	c-0.853,1.186-1.613,2.253-2.372,3.362c-2.21,3.149-4.275,6.204-6.349,9.429l-1.015,1.587c-0.495,0.751-0.99,1.519-1.459,2.313
	l-14.72-8.644c0.597-1.015,1.229-1.997,1.852-2.961l0.913-1.425c2.253-3.516,4.446-6.767,6.741-10.027
	c1.024-1.493,2.108-3.004,3.191-4.497c0.299-0.41,0.64-0.802,1.007-1.169c5.999-8.363,12.535-16.444,19.439-24.013
	c5.862-6.4,12.151-12.518,18.739-18.202c19.635-18.611,45.705-29.687,73.122-30.916c0.009,0,0.017,0,0.026,0
	c31.787,0,62.865,16.614,92.757,49.365c7.364,8.081,14.336,16.708,20.702,25.634h-0.009c0.367,0.512,0.674,1.058,0.922,1.621
	l1.971,2.79c3.243,4.693,6.323,9.344,9.225,14.089L366.484,102.407z"/>
<path d="M255.661,511.999c-108.22,0-196.267-88.038-196.267-196.267c0-3.823,0.128-7.799,0.358-11.913
	c0.111-2.534-0.964-5.069-2.953-6.827C20.414,263.32-0.236,215.747,0.003,166.356C-0.313,109.857,26.806,56.19,72.545,22.885
	c3.558-2.586,8.482-2.065,11.401,1.22l62.635,70.4l90.436,110.601c3.951,4.386,6.272,10.445,6.272,16.751
	c0,0.358-0.017,0.717-0.068,1.067l-12.885,101.888c-0.401,3.2-2.569,5.888-5.606,6.972c-13.687,4.864-27.981,7.91-42.505,9.037
	c-15.241,1.007-29.184,7.757-39.356,19.021c-17.493,19.994-19.883,49.988-6.989,89.062c31.77,28.604,73.779,46.029,119.782,46.029
	c46.473,0,88.875-17.783,120.747-46.899c12.57-38.647,10.095-68.343-7.364-88.286c-10.086-11.162-24.021-17.911-39.177-18.91
	c-14.609-1.135-28.911-4.173-42.59-9.045c-3.029-1.084-5.197-3.772-5.606-6.972l-12.885-101.888
	c-0.043-0.35-0.068-0.708-0.068-1.067c0-6.306,2.321-12.365,6.537-17.058l89.941-110.029l62.865-70.673
	c2.918-3.285,7.859-3.806,11.401-1.229c45.73,33.306,72.858,86.98,72.542,143.565c0.256,49.613-20.608,97.391-57.25,130.987
	c-2.116,1.869-3.2,4.395-3.106,7.049c0.196,3.797,0.282,7.612,0.282,11.255C451.928,423.952,363.881,511.999,255.661,511.999z
	 M76.47,41.377C38.872,71.67,16.796,117.818,17.069,166.347c-0.222,44.715,18.441,87.689,51.191,117.999
	c5.709,5.069,8.875,12.518,8.533,20.318c-0.213,3.9-0.333,7.552-0.333,11.068c0,40.158,13.278,77.278,35.678,107.187
	c-5.316-37.41,5.999-60.706,17.98-74.411c13.252-14.669,31.292-23.398,50.884-24.704c11.204-0.87,22.315-3.029,33.067-6.434
	l12.134-95.957c-0.102-1.929-0.853-3.755-2.15-5.197l-90.453-110.635L76.47,41.377z M297.927,317.37
	c10.761,3.396,21.888,5.564,33.169,6.443c19.499,1.289,37.538,10.027,50.697,24.593c11.938,13.636,23.168,36.617,18.236,73.387
	c21.88-29.722,34.833-66.415,34.833-106.061c0-3.362-0.085-6.895-0.265-10.496c-0.29-7.919,2.901-15.343,8.747-20.489
	c32.973-30.234,51.823-73.395,51.593-118.298c0.264-48.623-21.803-94.78-59.392-125.065l-57.37,64.478l-89.967,110.046
	c-1.545,1.724-2.313,3.575-2.415,5.504L297.927,317.37z"/>
<path d="M256.003,374.629c-2.543,0-5.086-0.572-7.458-1.715c-13.133-6.332-35.209-19.644-35.209-37.615v-11.546h17.067v11.546
	c0,5.854,10.513,14.993,25.566,22.238c15.121-7.245,25.634-16.393,25.634-22.238v-11.546h17.067v11.546
	c0,17.971-22.067,31.283-35.217,37.623C261.089,374.066,258.546,374.629,256.003,374.629z"/>
<path d="M117.532,305.21c-3.934,0-7.689-1.331-10.761-3.831c-3.533-2.876-5.734-6.955-6.195-11.494l-6.622-65.63
	c-0.102-0.981-0.111-1.98-0.034-2.978c0.316-4.497,2.398-8.653,5.845-11.648c3.456-2.995,7.902-4.463,12.407-4.13
	c0.759,0.051,1.51,0.213,2.236,0.469l118.844,41.984c4.446,1.57,6.775,6.443,5.205,10.889c-1.57,4.446-6.443,6.775-10.889,5.205
	l-116.582-41.182l6.579,65.306l102.34-23.415c4.617-1.075,9.173,1.826,10.223,6.417c1.058,4.591-1.818,9.165-6.409,10.214
	l-102.246,23.381c-0.614,0.154-1.365,0.273-2.125,0.358C118.736,305.185,118.138,305.21,117.532,305.21z"/>
<path d="M394.558,304.545c-1.306,0-2.645-0.154-3.968-0.469l-101.393-23.364c-4.591-1.058-7.458-5.641-6.4-10.231
	s5.658-7.433,10.231-6.4l101.47,23.381l6.537-65.246l-115.593,41.156c-4.429,1.587-9.31-0.734-10.897-5.171
	c-1.579-4.446,0.742-9.318,5.18-10.897l117.931-41.984c0.751-0.273,1.545-0.435,2.338-0.478c0.964-0.068,1.911-0.043,2.85,0.06
	c4.54,0.469,8.619,2.679,11.486,6.221c2.867,3.541,4.19,7.987,3.712,12.518l-6.562,65.579c-0.085,0.811-0.213,1.562-0.393,2.304
	C409.227,299.297,402.238,304.545,394.558,304.545z"/>
<path d="M256.003,479.341c-47.846,0-85.333-20.941-85.333-47.676c0-31.735,69.692-47.667,108.706-47.667
	c41.114,0,61.961,16.034,61.961,47.676C341.336,458.401,303.849,479.341,256.003,479.341z M279.376,401.065
	c-43.366,0-91.639,18.236-91.639,30.609c0,14.473,28.041,30.609,68.267,30.609s68.267-16.137,68.267-30.609
	C324.269,416.536,318.936,401.065,279.376,401.065z"/>
<g>
</g>
<g>
</g>
<g>
</g>
<g>
</g>
<g>
</g>
<g>
</g>
<g>
</g>
<g>
</g>
<g>
</g>
<g>
</g>
<g>
</g>
<g>
</g>
<g>
</g>
<g>
</g>
<g>
</g>
</svg>
