<svg id="Capa_1" enable-background="new 0 0 512 512" height="512" viewBox="0 0 512 512" width="512" xmlns="http://www.w3.org/2000/svg"><g><ellipse cx="266.941" cy="276.993" fill="#f6ee86" rx="203.108" ry="198.7"/><path d="m403.3 424.258c-281.991 17.216-306.497-201.042-191.708-338.499-85.275 23.572-147.759 100.263-147.759 191.234 0 109.739 90.935 198.7 203.108 198.7 52.48 0 100.313-19.474 136.359-51.435z" fill="#eed076"/><g><g fill="#e7889d"><ellipse cx="152.949" cy="302.541" rx="42.061" ry="33.495"/><ellipse cx="380.933" cy="302.541" rx="42.061" ry="33.495"/></g><path d="m441.422 349.415h-115.868c-11.514 0-20.848-9.334-20.848-20.848s9.334-20.848 20.848-20.848h115.868c11.794 0 21.39-9.596 21.39-21.391 0-5.713-2.226-11.085-6.265-15.125-8.143-8.142-8.143-21.342 0-29.484 8.141-8.141 21.341-8.141 29.483 0 11.915 11.915 18.478 27.758 18.478 44.609 0 34.787-28.301 63.087-63.086 63.087z" fill="#a2ddfd"/><path d="m367.454 349.415c-7.907-9.797-9.28-30.26-9.513-41.696h-32.387c-11.514 0-20.848 9.334-20.848 20.848s9.334 20.848 20.848 20.848z" fill="#7acdf9"/><path d="m284.305 306.115c.529 1.654.819 3.413.819 5.242 0 9.505-7.705 17.21-17.21 17.21 9.505 0 17.21 7.705 17.21 17.21 0 1.829-.291 3.589-.819 5.242h47.436c3.939 0 7.132-3.193 7.132-7.132v-30.641c0-3.939-3.193-7.132-7.132-7.132h-47.436z" fill="#b39bdb"/></g><path d="m37.94 23.783c46.784 11.71 123.366 34.308 162.443 46.002 12.563 3.76 17.874 18.602 10.57 29.493-12.563 18.734-29.648 41.046-57.899 69.297s-50.563 45.336-69.297 57.899c-10.892 7.304-25.734 1.993-29.494-10.57-11.693-39.077-34.291-115.659-46.001-162.443-4.487-17.928 11.75-34.165 29.678-29.678z" fill="#a2ddfd"/><path d="m83.758 226.475c14.995-10.055 32.291-23.026 53.081-42.282-48.543-28.258-69.808-95.965-73.79-153.869-8.969-2.407-17.443-4.622-25.108-6.54-17.929-4.488-34.166 11.749-29.679 29.677 11.71 46.784 34.308 123.365 46.002 162.443 3.76 12.564 18.603 17.875 29.494 10.571z" fill="#7acdf9"/><path d="m29.348 130.86c4.729 16.56 9.516 33.004 13.909 47.941 25.948-16.401 51.789-37.821 66.996-53.028s36.627-41.048 53.028-66.996c-14.937-4.393-31.382-9.179-47.941-13.908-12.648 18.207-27.47 35.896-38.783 47.209-11.314 11.313-29.002 26.135-47.209 38.782z" fill="#e7889d"/><path d="m74.467 94.136c-11.334 11.014-27.996 24.83-45.119 36.724 4.729 16.559 9.516 33.004 13.909 47.941 18.359-11.604 36.645-25.713 51.168-38.364-8.437-14.096-15.013-29.891-19.958-46.301z" fill="#e16e7e"/><path d="m380.142 103.814-18.505 18.505c-6.015 6.016-15.768 6.016-21.784 0l-18.505-18.505c-6.015-6.015-6.015-15.769 0-21.784l18.505-18.505c6.016-6.015 15.769-6.015 21.784 0l18.505 18.505c6.016 6.015 6.016 15.768 0 21.784z" fill="#7acdf9"/><path d="m110.827 425.383h-26.17c-8.507 0-15.404-6.896-15.404-15.404v-26.17c0-8.507 6.896-15.404 15.404-15.404h26.17c8.507 0 15.404 6.896 15.404 15.404v26.17c0 8.508-6.897 15.404-15.404 15.404z" fill="#b39bdb"/><path d="m239.254 465.972-18.505 18.505c-6.015 6.015-15.768 6.015-21.784 0l-18.505-18.505c-6.015-6.016-6.015-15.768 0-21.784l18.505-18.505c6.016-6.016 15.769-6.016 21.784 0l18.505 18.505c6.016 6.015 6.016 15.768 0 21.784z" fill="#e16e7e"/><path d="m481.249 132.659v26.17c0 8.507-6.896 15.404-15.404 15.404h-26.17c-8.507 0-15.404-6.896-15.404-15.404v-26.17c0-8.507 6.896-15.404 15.404-15.404h26.17c8.508 0 15.404 6.896 15.404 15.404z" fill="#e7889d"/><path d="m142.169 265.509c0 4.142 3.358 7.5 7.5 7.5s7.5-3.358 7.5-7.5c0-7.675 6.244-13.92 13.919-13.92s13.919 6.244 13.919 13.92c0 4.142 3.358 7.5 7.5 7.5s7.5-3.358 7.5-7.5c0-15.946-12.973-28.92-28.919-28.92s-28.919 12.974-28.919 28.92zm349.165-29.092c-5.287-5.287-12.297-8.223-19.762-8.296-4.005-16.141-9.97-31.677-17.816-46.389h12.089c12.629 0 22.903-10.274 22.903-22.904v-26.17c0-12.629-10.274-22.903-22.903-22.903h-26.17c-12.447 0-22.599 9.982-22.89 22.361-9.161-9.088-19.153-17.313-29.884-24.604 7.444-8.975 7.002-22.328-1.455-30.786l-18.506-18.505c-8.93-8.929-23.459-8.929-32.391 0l-18.291 18.292c-32.636-7.669-66.015-7.488-97.419-.301-3.314-6.578-9.107-11.458-16.305-13.612-30.109-9.01-74.4-22.084-114.415-33.199-3.992-1.107-8.125 1.227-9.234 5.219-1.108 3.991 1.229 8.125 5.219 9.234 6.227 1.729 12.558 3.507 18.924 5.309-21.659 29.333-40.007 47.693-69.386 69.387-6.868-24.252-13.372-48.002-18.104-66.91-3.114-12.444 8.155-23.694 20.582-20.581 4.304 1.077 9.068 2.299 14.16 3.634 4.008 1.049 8.106-1.347 9.156-5.354s-1.347-8.107-5.354-9.156c-5.146-1.349-9.964-2.585-14.321-3.675-23.404-5.859-44.642 15.333-38.774 38.774 11.644 46.522 33.877 121.951 46.093 162.773 2.171 7.257 7.111 13.089 13.77 16.389-2.992 13.958-4.516 28.238-4.516 42.55 0 29.611 6.597 59.079 19.112 85.854-8.053 3.553-13.692 11.61-13.692 20.962v26.17c0 12.629 10.274 22.904 22.903 22.904h26.17c4.98 0 9.589-1.602 13.351-4.311 13.488 12.186 28.479 22.566 44.699 30.935.863 4.43 3.017 8.506 6.28 11.768l18.505 18.505c8.929 8.93 23.461 8.931 32.391 0l8.96-8.96c54.848 8.171 112.066-4.527 159.074-39.438 3.325-2.47 4.02-7.167 1.55-10.493s-7.169-4.019-10.493-1.549c-40.887 30.365-89.81 42.498-137.402 37.922 5.585-8.847 4.546-20.647-3.184-28.377l-18.505-18.506c-8.931-8.929-23.461-8.929-32.391 0-17.722 18.081-19.575 18.715-22.262 23.473-13.945-7.641-26.861-16.912-38.533-27.66 1.473-5.216.609-7.044.863-32.383 0-12.629-10.274-22.903-22.904-22.903h-19.671c-19.877-39.645-24.308-83.37-15.553-123.748 4.335-.434 8.557-1.921 12.333-4.454 47.223-31.668 97.573-82.012 129.248-129.247 2.564-3.824 4.063-8.102 4.475-12.493 27.824-6.448 57.841-7.108 87.832-.604-.79 7.128 1.68 13.882 6.555 18.758l18.505 18.505c8.931 8.93 23.46 8.931 32.392 0l9.236-9.236c15.176 10.001 28.802 21.986 40.595 35.711v4.732c0 11.53 8.566 21.093 19.667 22.671 9.342 15.805 16.256 32.73 20.628 50.434-16.195 9.425-18.916 31.483-5.824 44.573 8.671 8.673 2.594 23.713-9.821 23.713h-103.053c-1.993-1.018-4.241-1.605-6.629-1.605h-42.664c-4.331-7.166-12.196-11.967-21.162-11.967-4.143 0-7.5 3.358-7.5 7.5s3.357 7.5 7.5 7.5c5.354 0 9.71 4.355 9.71 9.71s-4.355 9.71-9.71 9.71c-4.143 0-7.5 3.358-7.5 7.5s3.357 7.5 7.5 7.5c5.354 0 9.71 4.355 9.71 9.71s-4.355 9.709-9.71 9.709c-4.143 0-7.5 3.358-7.5 7.5s3.357 7.5 7.5 7.5c8.966 0 16.831-4.801 21.162-11.967h42.664c2.387 0 4.635-.586 6.628-1.604 109.371-.034 102.856.076 106.327-.083-8.517 18.126-19.844 34.777-33.814 49.613-2.839 3.016-2.696 7.762.319 10.602 3.01 2.835 7.757 2.702 10.603-.319 17.47-18.555 31.129-39.742 40.656-63.015 50.609-15.839 66.323-79.849 28.874-117.299zm-305.571 213.074 18.505-18.505c3.082-3.081 8.096-3.082 11.178-.001l18.505 18.506c3.089 3.088 3.089 8.087 0 11.177l-18.505 18.505c-3.082 3.081-8.096 3.081-11.178 0l-18.505-18.505c-3.088-3.089-3.089-8.087 0-11.177zm-109.009-65.681c0-4.358 3.545-7.903 7.903-7.903h26.17c4.358 0 7.904 3.546 7.904 7.903v26.17c0 4.358-3.545 7.904-7.904 7.904h-26.17c-4.358 0-7.903-3.545-7.903-7.904zm-38.734-249.897c16.029-11.49 32.49-25.181 43.84-36.532 11.348-11.347 25.039-27.808 36.531-43.84 11.227 3.218 22.383 6.455 33.091 9.589-16.24 24.15-34.757 45.563-46.533 57.339-11.777 11.777-33.191 30.295-57.339 46.534-3.118-10.653-6.361-21.826-9.59-33.09zm166.705-38.811c-30.582 45.604-79.54 94.562-125.144 125.144-6.704 4.497-15.818 1.238-18.131-6.492-2.717-9.079-5.932-19.88-9.414-31.686 26.653-17.447 50.62-38.091 63.52-50.991 12.899-12.899 33.544-36.866 50.991-63.52 11.565 3.411 22.314 6.61 31.687 9.415 7.732 2.313 10.985 11.428 6.491 18.13zm170.114 3.408-18.505 18.505c-3.081 3.082-8.098 3.081-11.177 0l-18.505-18.505c-3.089-3.089-3.09-8.088 0-11.177l18.504-18.505c3.081-3.081 8.096-3.083 11.178-.001l18.506 18.506c1.492 1.492 2.314 3.477 2.314 5.588 0 2.112-.822 4.096-2.315 5.589zm56.933 60.318v-26.17c0-4.358 3.545-7.903 7.903-7.903h26.17c4.358 0 7.903 3.545 7.903 7.903v26.17c0 4.358-3.545 7.904-7.903 7.904h-26.17c-4.358 0-7.903-3.545-7.903-7.904zm-100.399 184.691h-38.855c-.528-5.789-3.06-11.006-6.896-14.952 3.836-3.946 6.368-9.163 6.896-14.952h38.855zm110.049-1.604h-95.049v-26.696h95.049c15.931 0 28.891-12.96 28.891-28.891 0-7.716-3.005-14.971-8.463-20.428-2.522-2.521-3.91-5.874-3.91-9.439 0-11.859 14.435-17.793 22.787-9.439 10.499 10.5 16.281 24.458 16.281 39.306 0 30.651-24.936 55.587-55.586 55.587zm-92.787-76.406c0-7.675 6.244-13.92 13.919-13.92s13.919 6.244 13.919 13.92c0 4.142 3.357 7.5 7.5 7.5s7.5-3.358 7.5-7.5c0-15.946-12.973-28.92-28.919-28.92s-28.919 12.973-28.919 28.92c0 4.142 3.357 7.5 7.5 7.5s7.5-3.357 7.5-7.5z"/></g></svg>