<?xml version="1.0" encoding="iso-8859-1"?>
<!-- Generator: Adobe Illustrator 19.0.0, SVG Export Plug-In . SVG Version: 6.00 Build 0)  -->
<svg version="1.1" id="Layer_1" xmlns="http://www.w3.org/2000/svg" xmlns:xlink="http://www.w3.org/1999/xlink" x="0px" y="0px"
	 viewBox="0 0 488 488" style="enable-background:new 0 0 488 488;" xml:space="preserve">
<g>
	<path style="fill:#F7910B;" d="M485.6,298.4c0,104-95.2,188-242.4,188s-242.4-84-242.4-188s95.2-260,242.4-260
		S485.6,194.4,485.6,298.4z"/>
	<path style="fill:#F7910B;" d="M485.6,298.4c0,104-95.2,156-242.4,156s-242.4-52-242.4-156s95.2-276,242.4-276
		S485.6,194.4,485.6,298.4z"/>
</g>
<g>
	<path style="fill:#F9A908;" d="M243.2,22.4c147.2,0,242.4,172,242.4,276s-95.2,156-242.4,156"/>
	<path style="fill:#F9A908;" d="M485.6,298.4c0,104-95.2,156-242.4,156s-242.4-52-242.4-156s95.2-260,242.4-260
		S485.6,194.4,485.6,298.4z"/>
</g>
<path style="fill:#F9C55D;" d="M0,298.4c0-104,95.2-260,242.4-260"/>
<path style="fill:#F7910B;" d="M243.2,38.4c147.2,0,242.4,156,242.4,260s-95.2,188-242.4,188"/>
<path style="fill:#EA7103;" d="M243.2,38.4c147.2,0,242.4,156,242.4,260"/>
<path style="fill:#19BCA4;" d="M194.4,120c1.6,6.4-10.4,6.4-24,10.4s-24,10.4-26.4,3.2c-1.6-6.4,8-15.2,21.6-19.2
	C179.2,111.2,192,113.6,194.4,120z"/>
<path style="fill:#109DA0;" d="M194.4,120c1.6,6.4-10.4,6.4-24,10.4s-24,10.4-26.4,3.2"/>
<path style="fill:#19BCA4;" d="M292.8,96c-2.4,6.4,9.6,8,22.4,13.6c13.6,5.6,22.4,13.6,25.6,7.2c2.4-6.4-5.6-16-19.2-21.6
	C308,88.8,295.2,89.6,292.8,96z"/>
<path style="fill:#109DA0;" d="M292.8,96c-2.4,6.4,9.6,8,22.4,13.6c13.6,5.6,22.4,13.6,25.6,7.2"/>
<g>
	<circle style="fill:#F7910B;" cx="69.6" cy="274.4" r="4.8"/>
	<circle style="fill:#F7910B;" cx="33.6" cy="290.4" r="8.8"/>
	<circle style="fill:#F7910B;" cx="57.6" cy="258.4" r="1.6"/>
	<circle style="fill:#F7910B;" cx="94.4" cy="272.8" r="1.6"/>
</g>
<g>
	<circle style="fill:#F9A908;" cx="408" cy="276.8" r="6.4"/>
	<circle style="fill:#F9A908;" cx="428" cy="288" r="1.6"/>
	<circle style="fill:#F9A908;" cx="384.8" cy="217.6" r="2.4"/>
	<circle style="fill:#F9A908;" cx="380.8" cy="310.4" r="10.4"/>
	<circle style="fill:#F9A908;" cx="438.4" cy="311.2" r="4.8"/>
</g>
<g>
	<circle style="fill:#F7910B;" cx="61.6" cy="306.4" r="4"/>
	<circle style="fill:#F7910B;" cx="68" cy="239.2" r="3.2"/>
</g>
<g>
	<circle style="fill:#F9A908;" cx="25.6" cy="128.8" r="8.8"/>
	<circle style="fill:#F9A908;" cx="51.2" cy="100.8" r="4.8"/>
	<circle style="fill:#F9A908;" cx="460.8" cy="148" r="1.6"/>
</g>
<path style="fill:#1E4784;" d="M177.6,222.4c-3.2-0.8-6.4-2.4-8.8-5.6c-8.8-12.8-27.2-16-40-7.2c-6.4,4-14.4,2.4-18.4-3.2
	c-4-6.4-2.4-14.4,3.2-18.4c24.8-17.6,59.2-11.2,76.8,14.4c4,5.6,2.4,14.4-3.2,18.4C184.8,222.4,180.8,222.4,177.6,222.4z"/>
<path style="fill:#02243E;" d="M191.2,201.6c4,5.6,2.4,14.4-3.2,18.4c-3.2,2.4-6.4,2.4-9.6,2.4c-3.2-0.8-6.4-2.4-8.8-5.6
	c-8.8-12.8-27.2-16-40-7.2c-6.4,4-14.4,2.4-18.4-3.2c-4-6.4-2.4-14.4,3.2-18.4"/>
<circle style="fill:#D87703;" cx="320.8" cy="204" r="28"/>
<circle style="fill:#1E4784;" cx="320.8" cy="196" r="28"/>
<path style="fill:#00233F;" d="M320.8,168c15.2,0,28,12.8,28,28s-12.8,28-28,28"/>
<g>
	<circle style="fill:#F9A908;" cx="454.4" cy="124.8" r="6.4"/>
	<circle style="fill:#F9A908;" cx="474.4" cy="128.8" r="4"/>
	<circle style="fill:#F9A908;" cx="35.2" cy="152.8" r="4.8"/>
</g>
<path style="fill:#F9C55D;" d="M209.6,244.8c0,9.6-28,5.6-62.4,5.6s-62.4,4.8-62.4-5.6s28-17.6,62.4-17.6
	C181.6,227.2,209.6,235.2,209.6,244.8z"/>
<path style="fill:#F9A908;" d="M400.8,244.8c0,9.6-28,5.6-62.4,5.6s-62.4,4.8-62.4-5.6s28-17.6,62.4-17.6
	C373.6,227.2,400.8,235.2,400.8,244.8z"/>
<path style="fill:#F9C55D;" d="M274.4,266.4c0,6.4-13.6,12-31.2,12s-31.2-5.6-31.2-12"/>
<path style="fill:#F7910B;" d="M286.4,281.6c0,15.2-19.2,43.2-43.2,43.2s-43.2-28-43.2-43.2"/>
<g>
	<path style="fill:#02243E;" d="M154.4,272c-4.8,0-8.8-4-8.8-8.8s4-8.8,8.8-8.8c4,0,7.2-3.2,7.2-7.2c0-4.8,4-8.8,8.8-8.8
		s8.8,4,8.8,8.8C179.2,260.8,168,272,154.4,272z"/>
	<path style="fill:#02243E;" d="M331.2,272c-13.6,0-24.8-11.2-24.8-24.8c0-4.8,4-8.8,8.8-8.8s8.8,4,8.8,8.8c0,4,3.2,7.2,7.2,7.2
		c4.8,0,8.8,4,8.8,8.8S336,272,331.2,272z"/>
	<path style="fill:#02243E;" d="M243.2,300.8c-30.4,0-60.8-11.2-83.2-34.4c-3.2-3.2-3.2-8.8,0-12.8c3.2-3.2,8.8-3.2,12.8,0
		c39.2,39.2,103.2,39.2,142.4,0c3.2-3.2,8.8-3.2,12.8,0c3.2,3.2,3.2,8.8,0,12.8C303.2,289.6,272.8,300.8,243.2,300.8z"/>
</g>
<path style="fill:#3CC676;" d="M0,302.4c2.4,101.6,96.8,184,242.4,184s240-82.4,242.4-184H0z"/>
<path style="fill:#12AF6B;" d="M243.2,486.4c145.6,0,240-82.4,242.4-184H0"/>
<path style="fill:#D63834;" d="M359.2,457.6c-6.4-59.2-56-104.8-116.8-104.8S132,398.4,125.6,457.6L359.2,457.6L359.2,457.6z"/>
<path style="fill:#BC1E1E;" d="M126.4,457.6h232.8c-6.4-59.2-56-104.8-116.8-104.8"/>
<path style="fill:#F7DF77;" d="M320.8,457.6c-4.8-39.2-37.6-69.6-77.6-69.6s-73.6,30.4-77.6,69.6H320.8z"/>
<path style="fill:#F2C549;" d="M165.6,457.6h155.2c-4.8-39.2-37.6-69.6-77.6-69.6"/>
<path style="fill:#3CC676;" d="M283.2,457.6c-2.4-20.8-19.2-36.8-40.8-36.8c-20.8,0-38.4,16-40.8,36.8H283.2z"/>
<path style="fill:#12AF6B;" d="M202.4,457.6H284c-2.4-20.8-19.2-36.8-40.8-36.8"/>
<g>
	<circle style="fill:#D63834;" cx="87.2" cy="384" r="6.4"/>
	<circle style="fill:#D63834;" cx="140" cy="360" r="1.6"/>
	<circle style="fill:#D63834;" cx="394.4" cy="369.6" r="17.6"/>
	<circle style="fill:#D63834;" cx="443.2" cy="336.8" r="4"/>
	<circle style="fill:#D63834;" cx="452" cy="372" r="3.2"/>
</g>
<g>
	<circle style="fill:#F7DF77;" cx="130.4" cy="328.8" r="6.4"/>
	<circle style="fill:#F7DF77;" cx="180" cy="323.2" r="1.6"/>
	<circle style="fill:#F7DF77;" cx="142.4" cy="357.6" r="1.6"/>
	<circle style="fill:#F7DF77;" cx="316" cy="348" r="11.2"/>
	<circle style="fill:#F7DF77;" cx="359.2" cy="328.8" r="5.6"/>
	<circle style="fill:#F7DF77;" cx="406.4" cy="330.4" r="1.6"/>
	<circle style="fill:#F7DF77;" cx="270.4" cy="328.8" r="4"/>
</g>
<g>
	<circle style="fill:#98F4F1;" cx="387.2" cy="424" r="4"/>
	<circle style="fill:#98F4F1;" cx="102.4" cy="346.4" r="4"/>
	<circle style="fill:#98F4F1;" cx="112" cy="416" r="8.8"/>
	<circle style="fill:#98F4F1;" cx="47.2" cy="372.8" r="5.6"/>
	<circle style="fill:#98F4F1;" cx="354.4" cy="380" r="4"/>
	<circle style="fill:#98F4F1;" cx="421.6" cy="349.6" r="1.6"/>
	<circle style="fill:#98F4F1;" cx="424" cy="400" r="7.2"/>
	<circle style="fill:#98F4F1;" cx="31.2" cy="320.8" r="5.6"/>
</g>
<circle style="fill:#D63834;" cx="72" cy="344" r="12.8"/>
<path style="fill:#F7910B;" d="M288.8,301.6c0,25.6-20.8,46.4-46.4,46.4S196,327.2,196,301.6"/>
<path style="fill:#12AF6B;" d="M398.4,80c0,4.8-3.2,8-8,8H95.2c-4.8,0-8-3.2-8-8l0,0c0-4.8,3.2-8,8-8h294.4
	C394.4,72,398.4,75.2,398.4,80L398.4,80z"/>
<path style="fill:#3CC676;" d="M390.4,72c4.8,0,8,3.2,8,8l0,0c0,4.8-3.2,8-8,8H95.2c-4.8,0-8-3.2-8-8l0,0"/>
<ellipse style="fill:#D63834;" cx="409.6" cy="39.2" rx="21.6" ry="37.6"/>
<path style="fill:#BC1E1E;" d="M409.6,1.6c12,0,21.6,16.8,21.6,37.6S421.6,76,409.6,76"/>
<ellipse style="fill:#D63834;" cx="409.6" cy="120" rx="21.6" ry="37.6"/>
<path style="fill:#BC1E1E;" d="M409.6,83.2c12,0,21.6,16.8,21.6,37.6s-9.6,37.6-21.6,37.6"/>
<ellipse transform="matrix(0.7071 -0.7071 0.7071 0.7071 92.2416 324.8)" style="fill:#D63834;" cx="438.189" cy="51.055" rx="37.6" ry="21.6"/>
<path style="fill:#BC1E1E;" d="M464.8,24.8c8.8,8.8,3.2,27.2-11.2,41.6C439.2,80.8,420,85.6,412,77.6"/>
<ellipse transform="matrix(0.7071 -0.7071 0.7071 0.7071 35.2691 301.0689)" style="fill:#D63834;" cx="381.057" cy="107.961" rx="37.6" ry="21.6"/>
<path style="fill:#BC1E1E;" d="M407.2,81.6c8.8,8.8,3.2,27.2-11.2,41.6c-14.4,14.4-33.6,20-41.6,11.2"/>
<ellipse style="fill:#D63834;" cx="450.4" cy="80" rx="37.6" ry="21.6"/>
<path style="fill:#BC1E1E;" d="M488,80c0,12-16.8,21.6-37.6,21.6c-20.8,0-37.6-9.6-37.6-21.6"/>
<ellipse style="fill:#D63834;" cx="368.8" cy="80" rx="37.6" ry="21.6"/>
<path style="fill:#BC1E1E;" d="M406.4,80c0,12-16.8,21.6-37.6,21.6c-20.8,0-37.6-9.6-37.6-21.6"/>
<path style="fill:#D63834;" d="M423.2,123.2c-14.4-14.4-20-33.6-11.2-41.6c8.8-8.8,27.2-3.2,41.6,11.2s20,33.6,11.2,41.6
	C456.8,143.2,437.6,138.4,423.2,123.2z"/>
<path style="fill:#BC1E1E;" d="M464.8,134.4c-8,8.8-27.2,3.2-41.6-11.2s-20-33.6-11.2-41.6"/>
<ellipse transform="matrix(0.7073 0.7069 -0.7069 0.7073 147.1727 -254.4258)" style="fill:#D63834;" cx="380.828" cy="50.511" rx="37.6" ry="21.6"/>
<path style="fill:#BC1E1E;" d="M407.2,77.6c-8.8,8.8-27.2,3.2-41.6-11.2s-20-33.6-11.2-41.6"/>
<circle style="fill:#F9A908;" cx="409.6" cy="80" r="44.8"/>
<path style="fill:#F7910B;" d="M440.8,48c17.6,17.6,17.6,45.6,0,63.2s-45.6,17.6-63.2,0"/>
<path style="fill:#F9C55D;" d="M411.2,48.8c4,4.8,0,14.4-8,20c-8,6.4-17.6,7.2-21.6,2.4c-4-4.8,0-14.4,8-20
	C397.6,44.8,407.2,43.2,411.2,48.8z"/>
<g>
</g>
<g>
</g>
<g>
</g>
<g>
</g>
<g>
</g>
<g>
</g>
<g>
</g>
<g>
</g>
<g>
</g>
<g>
</g>
<g>
</g>
<g>
</g>
<g>
</g>
<g>
</g>
<g>
</g>
</svg>
